<?xml version="1.0" standalone="no"?>
<!DOCTYPE svg PUBLIC "-//W3C//DTD SVG 20010904//EN"
 "http://www.w3.org/TR/2001/REC-SVG-20010904/DTD/svg10.dtd">
<svg version="1.0" xmlns="http://www.w3.org/2000/svg"
 width="1080.000000pt" height="1440.000000pt" viewBox="0 0 1080.000000 1440.000000"
 preserveAspectRatio="xMidYMid meet">

<g transform="translate(0.000000,1440.000000) scale(0.100000,-0.100000)"
fill="#000000" stroke="none">
<path d="M0 7200 l0 -7200 5400 0 5400 0 0 7200 0 7200 -5400 0 -5400 0 0
-7200z m3020 717 c121 -40 227 -105 318 -197 250 -253 281 -651 73 -954 -52
-75 -176 -181 -265 -225 -125 -64 -224 -84 -370 -79 -93 4 -139 11 -199 31
-239 78 -436 288 -494 525 -21 89 -21 275 0 363 63 259 274 473 532 540 86 23
331 20 405 -4z m1060 -479 c0 -119 0 -121 19 -104 46 42 134 56 219 34 65 -16
143 -94 162 -163 17 -60 17 -143 1 -204 -16 -57 -100 -142 -157 -159 -82 -24
-203 -4 -230 39 -6 10 -10 7 -14 -11 -5 -23 -10 -25 -78 -28 l-72 -3 0 361 0
360 75 0 75 0 0 -122z m1230 -238 l0 -360 -70 0 -70 0 0 360 0 360 70 0 70 0
0 -360z m-349 156 c47 -22 95 -70 122 -120 19 -37 22 -61 25 -218 l4 -178 -76
0 c-70 0 -76 2 -76 21 0 11 -3 19 -7 17 -88 -45 -108 -50 -174 -46 -52 4 -78
12 -114 34 -111 70 -154 227 -98 365 18 46 97 121 145 137 49 17 205 9 249
-12z m801 10 c57 -21 112 -70 141 -128 26 -52 27 -58 27 -226 l0 -172 -70 0
c-54 0 -70 3 -70 14 0 26 -15 26 -65 1 -65 -33 -142 -33 -210 -1 -98 46 -147
130 -147 251 0 134 66 230 182 266 41 12 172 9 212 -5z m619 3 c40 -14 84 -52
107 -94 14 -24 17 -68 20 -232 l4 -203 -71 0 -71 0 0 143 c-1 221 -18 262
-110 262 -38 0 -55 -5 -72 -23 -22 -21 -23 -32 -28 -200 l-5 -177 -72 -3 -73
-3 0 266 0 266 73 -3 c67 -3 72 -5 75 -26 l4 -24 23 22 c40 38 129 51 196 29z
m546 -1 c51 -12 149 -96 141 -119 -2 -7 -26 -26 -52 -42 -47 -29 -48 -29 -61
-10 -8 11 -30 28 -49 37 -96 45 -196 -20 -196 -129 0 -88 51 -139 137 -139 43
0 58 5 91 31 l39 31 46 -30 c26 -17 47 -34 47 -39 0 -22 -71 -85 -128 -113
-60 -29 -66 -35 -86 -86 -20 -52 -23 -55 -60 -58 -22 -2 -49 -1 -62 2 l-22 6
19 51 c23 60 19 83 -21 99 -40 17 -99 78 -121 125 -23 50 -26 180 -4 231 53
126 195 190 342 152z m559 -3 c33 -10 62 -28 91 -57 74 -77 78 -91 81 -290 l4
-178 -72 0 c-64 0 -72 2 -77 20 -3 12 -8 19 -12 17 -74 -41 -108 -49 -173 -45
-104 8 -181 66 -218 166 -54 144 15 318 145 366 52 19 169 20 231 1z m625 -16
c79 -44 134 -142 127 -227 l-3 -37 -228 -3 -229 -2 7 -33 c10 -48 56 -109 102
-135 79 -44 171 -39 248 14 34 22 40 24 53 10 13 -13 12 -17 -12 -39 -42 -39
-96 -61 -161 -65 -77 -5 -133 10 -187 51 -124 95 -138 303 -29 420 51 56 112
78 202 73 47 -2 79 -10 110 -27z m229 -136 c1 -87 5 -177 9 -201 18 -90 115
-148 206 -122 104 29 125 83 125 325 l0 155 25 0 25 0 0 -195 c0 -212 -6 -240
-62 -292 -79 -74 -253 -70 -325 8 -45 50 -52 85 -53 280 0 101 -1 187 0 192 0
4 11 7 25 7 l25 0 0 -157z"/>
<path d="M2680 7826 c-68 -15 -153 -60 -187 -101 -42 -48 -75 -132 -80 -200
-6 -68 7 -121 42 -173 26 -39 86 -85 96 -75 3 5 25 50 47 102 79 181 185 322
266 356 76 32 149 7 188 -65 45 -82 -11 -246 -125 -367 l-39 -41 44 -20 c89
-39 154 -132 165 -235 17 -173 -136 -329 -308 -314 -77 7 -140 37 -197 94 -65
65 -86 136 -80 259 3 49 8 96 12 105 5 12 -1 20 -25 29 -45 19 -130 106 -159
165 -22 44 -25 62 -25 163 l0 113 -22 -28 c-13 -15 -36 -53 -52 -83 -117 -221
-98 -494 49 -692 285 -386 888 -327 1095 107 50 106 59 148 58 280 0 98 -4
132 -22 185 -81 233 -262 399 -485 441 -65 12 -188 10 -256 -5z"/>
<path d="M2882 7628 c-18 -13 -51 -48 -73 -78 -62 -83 -159 -283 -144 -298 3
-3 34 10 71 28 80 41 152 117 194 205 41 86 47 121 25 145 -23 25 -33 25 -73
-2z"/>
<path d="M2751 7163 c-13 -2 -45 -26 -72 -53 -38 -38 -49 -56 -54 -95 -21
-136 95 -246 227 -215 91 22 141 85 142 180 1 100 -69 178 -165 185 -30 2 -65
1 -78 -2z"/>
<path d="M4143 7230 c-48 -29 -66 -63 -66 -126 0 -64 21 -99 74 -126 96 -50
199 16 199 127 0 112 -115 181 -207 125z"/>
<path d="M4763 7235 c-71 -31 -98 -146 -50 -216 45 -67 146 -76 209 -20 28 25
32 35 35 92 3 52 0 70 -17 97 -35 56 -111 76 -177 47z"/>
<path d="M5579 7230 c-92 -49 -91 -205 2 -252 66 -34 144 -13 186 51 42 63 21
153 -46 198 -41 28 -93 29 -142 3z"/>
<path d="M7313 7235 c-116 -50 -94 -247 31 -271 94 -17 170 46 170 140 0 110
-100 175 -201 131z"/>
<path d="M7905 7311 c-22 -10 -55 -34 -72 -54 -38 -43 -59 -107 -40 -119 6 -4
99 -8 205 -8 l194 0 -7 33 c-27 128 -164 201 -280 148z"/>
</g>
</svg>
