<?xml version="1.0" standalone="no"?>
<!DOCTYPE svg PUBLIC "-//W3C//DTD SVG 20010904//EN"
 "http://www.w3.org/TR/2001/REC-SVG-20010904/DTD/svg10.dtd">
<svg version="1.0" xmlns="http://www.w3.org/2000/svg"
 width="1080.000000pt" height="1440.000000pt" viewBox="0 0 1080.000000 1440.000000"
 preserveAspectRatio="xMidYMid meet">

<g transform="translate(0.000000,1440.000000) scale(0.100000,-0.100000)"
fill="#000000" stroke="none">
<path d="M0 7200 l0 -7200 5400 0 5400 0 0 7200 0 7200 -5400 0 -5400 0 0
-7200z m5800 3186 c399 -69 779 -238 1097 -489 105 -82 290 -264 384 -377 139
-166 321 -485 394 -690 39 -112 101 -360 122 -490 25 -162 25 -528 0 -690 -23
-146 -87 -396 -131 -508 -320 -829 -1061 -1422 -1926 -1544 -126 -17 -554 -17
-680 0 -524 74 -1017 324 -1385 703 -202 208 -333 393 -452 639 -87 179 -140
331 -182 520 -51 232 -56 279 -56 540 1 268 11 356 76 620 132 538 513 1068
1004 1397 292 195 684 340 1035 383 122 14 589 5 700 -14z m-3440 -5416 c0
-152 7 -198 23 -156 9 23 111 67 169 73 222 23 390 -153 376 -394 -8 -142 -81
-255 -201 -309 -115 -52 -259 -34 -339 43 l-28 27 0 -42 0 -42 -90 0 -90 0 0
485 0 485 90 0 90 0 0 -170z m1668 -317 l2 -483 -100 0 -100 0 0 469 c0 258 3
477 6 486 5 13 21 15 98 13 l91 -3 3 -482z m-477 205 c79 -36 131 -87 165
-160 29 -63 29 -63 32 -295 l3 -233 -95 0 c-96 0 -96 0 -96 25 0 32 -6 31 -74
-4 -95 -51 -194 -50 -303 1 -200 94 -250 413 -93 592 67 76 158 107 300 103
87 -3 115 -8 161 -29z m1101 3 c70 -27 138 -93 176 -170 27 -55 27 -58 30
-288 l3 -233 -100 0 -101 0 0 25 c0 14 -3 25 -6 25 -4 0 -36 -15 -73 -32 -57
-29 -76 -33 -141 -33 -174 1 -304 118 -331 298 -31 209 70 378 256 428 58 16
226 4 287 -20z m806 14 c61 -18 115 -63 142 -115 30 -59 40 -150 40 -377 l0
-213 -94 0 -94 0 -4 223 c-3 210 -4 224 -26 258 -58 95 -194 88 -244 -11 -16
-30 -18 -65 -18 -252 l0 -218 -95 0 -95 0 0 355 0 356 93 -3 92 -3 6 -40 c3
-22 7 -35 8 -28 1 14 61 52 110 69 49 18 117 17 179 -1z m748 -6 c56 -17 77
-31 126 -79 32 -32 58 -63 58 -69 0 -12 -113 -91 -131 -91 -6 0 -20 12 -32 26
-26 33 -91 64 -137 64 -80 0 -159 -63 -181 -143 -15 -55 1 -137 37 -184 67
-87 217 -85 290 4 l20 26 67 -44 c37 -24 67 -50 67 -57 0 -7 -24 -37 -53 -66
-49 -49 -72 -62 -185 -101 -13 -5 -22 -23 -56 -117 l-18 -48 -85 0 c-77 0 -84
2 -78 18 4 9 16 43 27 74 24 70 18 85 -55 126 -65 37 -112 88 -146 162 -22 47
-26 69 -26 150 0 83 3 102 28 155 81 174 271 253 463 194z m737 1 c84 -26 164
-96 204 -178 28 -57 28 -58 31 -289 l4 -233 -101 0 -101 0 0 25 c0 14 -3 25
-6 25 -4 0 -36 -15 -72 -32 -170 -84 -368 -8 -450 170 -49 108 -40 273 22 371
49 77 122 131 203 150 71 17 197 12 266 -9z m790 0 c126 -39 210 -150 224
-295 5 -52 3 -69 -8 -76 -8 -5 -148 -9 -311 -9 l-297 0 6 -32 c13 -72 46 -130
95 -169 113 -89 269 -90 383 -3 37 28 49 33 61 23 37 -31 -2 -75 -111 -126
-49 -22 -74 -27 -140 -28 -152 0 -265 66 -327 193 -31 63 -33 72 -33 177 0
100 3 115 28 167 77 158 255 232 430 178z m357 -182 c1 -312 18 -377 117 -435
40 -24 59 -28 119 -28 93 0 155 35 193 110 26 48 26 54 29 297 l3 248 35 0 34
0 0 -250 c0 -228 -2 -254 -21 -305 -27 -74 -58 -108 -127 -142 -50 -24 -69
-28 -147 -28 -80 0 -97 3 -150 30 -65 33 -116 89 -136 153 -8 23 -14 130 -16
290 l-5 252 36 0 36 0 0 -192z"/>
<path d="M5295 10103 c-187 -13 -448 -81 -617 -161 -170 -80 -346 -248 -433
-413 -86 -164 -141 -351 -151 -514 -19 -293 111 -564 355 -744 64 -47 130 -86
135 -79 2 2 18 46 36 98 180 514 441 971 705 1235 133 133 205 181 328 220
258 82 512 -62 582 -330 51 -197 -30 -477 -232 -804 -87 -140 -137 -204 -257
-328 l-101 -103 55 -16 c280 -81 537 -352 616 -649 27 -100 27 -380 0 -480
-41 -156 -135 -314 -257 -431 -198 -189 -424 -274 -697 -261 -209 10 -386 81
-574 231 -110 88 -177 168 -240 289 -89 169 -125 430 -98 708 10 99 35 267 45
299 3 10 -18 27 -70 54 -157 80 -330 232 -438 382 -53 74 -143 266 -166 356
-57 221 -46 486 29 717 12 35 19 65 17 68 -8 8 -156 -176 -229 -285 -86 -128
-194 -347 -242 -492 -77 -231 -111 -478 -103 -745 10 -331 76 -592 224 -890
155 -310 412 -597 711 -796 190 -126 343 -198 568 -268 302 -94 693 -114 1008
-51 790 159 1437 760 1632 1518 50 196 65 297 71 497 18 588 -195 1131 -607
1546 -244 245 -509 410 -830 517 -282 93 -506 124 -775 105z"/>
<path d="M5701 9435 c-113 -53 -315 -284 -453 -520 -110 -188 -124 -215 -211
-410 -82 -186 -144 -352 -134 -361 11 -12 149 30 232 71 253 123 439 292 595
540 122 195 197 376 207 501 13 167 -91 246 -236 179z"/>
<path d="M5250 7879 c-101 -26 -162 -57 -242 -124 -153 -127 -240 -330 -225
-527 12 -149 76 -286 188 -399 53 -53 87 -77 160 -112 117 -56 164 -67 279
-67 174 0 325 63 446 185 123 126 178 259 178 435 1 160 -30 255 -127 386
-146 198 -410 288 -657 223z"/>
<path d="M2494 4713 c-37 -7 -101 -71 -120 -118 -34 -91 6 -207 86 -247 22
-11 58 -18 95 -18 124 0 197 90 182 222 -15 120 -115 186 -243 161z"/>
<path d="M3300 4704 c-87 -37 -131 -129 -110 -226 21 -98 83 -148 184 -148
102 0 172 60 190 162 26 148 -128 271 -264 212z"/>
<path d="M4405 4706 c-93 -42 -140 -167 -100 -264 34 -79 86 -112 178 -112 73
0 116 22 154 78 43 64 39 177 -8 243 -42 59 -154 86 -224 55z"/>
<path d="M6709 4697 c-103 -55 -130 -215 -52 -307 37 -45 74 -60 143 -60 69 0
106 15 143 60 63 75 61 191 -6 267 -59 67 -148 82 -228 40z"/>
<path d="M7527 4806 c-94 -34 -158 -107 -176 -199 l-8 -47 275 0 275 0 -7 41
c-25 158 -204 260 -359 205z"/>
</g>
</svg>
