<svg width="889" height="197" viewBox="0 0 889 197" fill="none" xmlns="http://www.w3.org/2000/svg">
<path fill-rule="evenodd" clip-rule="evenodd" d="M127.033 2.62966C143.167 7.96299 157.3 16.6297 169.433 28.8964C202.767 62.6297 206.9 115.696 179.167 156.096C172.233 166.096 155.7 180.23 143.833 186.096C127.167 194.63 113.967 197.296 94.5 196.63C82.1 196.096 75.9667 195.163 67.9667 192.496C36.1 182.096 9.83333 154.096 2.1 122.496C-0.7 110.63 -0.7 85.8297 2.1 74.0964C10.5 39.5631 38.6334 11.0297 73.0333 2.09633C84.5 -0.970332 117.167 -0.57034 127.033 2.62966ZM56.7667 28.2298C61.3 22.7631 72.6334 16.7631 81.7 14.7631C90.7667 12.7631 107.167 12.4965 115.833 14.0965C145.567 19.6965 169.7 41.8298 180.5 72.8964C182.9 79.9631 183.433 84.4965 183.433 97.5631C183.567 115.163 182.367 120.763 175.7 134.896C148.1 192.763 67.7 200.63 29.7 149.163C10.1 122.763 7.56668 86.3631 23.1667 56.8964C25.3 52.8964 28.3667 47.8298 30.1 45.8298L33.0333 42.0965V57.1631C33.0333 70.6298 33.4334 73.0298 36.3667 78.8964C40.2334 86.7631 51.5667 98.3631 57.5667 100.896C60.7667 102.096 61.5667 103.163 60.9 104.763C60.3667 105.963 59.7 112.23 59.3 118.763C58.5 135.163 61.3 144.63 69.9667 153.296C77.5667 160.896 85.9667 164.896 96.2334 165.83C119.167 167.83 139.567 147.03 137.3 123.963C135.833 110.23 127.167 97.8298 115.3 92.6298L109.433 89.9631L114.633 84.4964C129.833 68.3631 137.3 46.4964 131.3 35.5631C126.1 25.9631 116.367 22.6298 106.233 26.8964C95.4334 31.4298 81.3 50.2298 70.7667 74.3631C67.8334 81.2965 64.9 87.2964 64.5 87.9631C63.1667 89.2964 55.1667 83.1631 51.7 77.9631C47.0334 71.0298 45.3 63.9631 46.1 54.8964C46.7667 45.8298 51.1667 34.6298 56.7667 28.2298ZM98.9 51.5631C101.833 47.5631 106.233 42.8964 108.633 41.163C113.967 37.563 115.3 37.5631 118.367 40.8964C121.3 44.0964 120.5 48.763 115.033 60.2297C109.433 71.963 99.8334 82.0964 89.1667 87.5631C84.2334 89.9631 80.1001 91.6964 79.7001 91.2964C77.7001 89.2964 90.6334 62.6297 98.9 51.5631ZM81.5667 110.23C85.1667 106.63 89.4334 103.43 91.1667 103.163C92.9 102.763 97.5667 102.63 101.567 102.896C114.367 103.83 123.7 114.23 123.567 127.563C123.433 140.23 116.767 148.63 104.633 151.563C87.0334 155.696 71.5667 141.03 74.3667 122.896C75.0334 117.696 76.5001 115.296 81.5667 110.23Z" fill="currentColor"/>
<path fill-rule="evenodd" clip-rule="evenodd" d="M268.367 66.4964C268.367 82.363 268.367 82.6297 270.9 80.3631C277.033 74.7631 288.767 72.8964 300.1 75.8297C308.767 77.9631 319.167 88.3631 321.7 97.5631C323.967 105.563 323.967 116.63 321.833 124.763C319.7 132.363 308.5 143.696 300.9 145.963C289.967 149.163 273.833 146.496 270.233 140.763C269.433 139.43 268.9 139.83 268.367 142.23C267.7 145.296 267.033 145.563 257.967 145.963L248.367 146.363V50.2297H268.367V66.4964ZM267.967 111.03C267.967 102.63 270.367 98.0964 276.767 94.2298C289.033 86.7631 304.367 95.9631 304.367 110.896C304.367 125.696 290.633 134.496 277.833 127.83C270.767 124.23 267.967 119.563 267.967 111.03Z" fill="currentColor"/>
<path fill-rule="evenodd" clip-rule="evenodd" d="M385.833 77.4297C392.1 80.363 398.5 86.763 402.1 93.4297C404.633 98.363 405.033 101.563 405.433 122.496L405.967 146.23H395.833C386.5 146.23 385.7 145.963 385.7 143.43C385.7 141.963 385.3 140.896 384.767 141.163C373.033 147.163 370.367 147.83 361.567 147.296C354.633 146.763 351.167 145.696 346.367 142.763C331.567 133.43 325.833 112.496 333.3 94.0964C335.7 87.9631 346.233 77.9631 352.633 75.8297C359.167 73.5631 379.967 74.6297 385.833 77.4297ZM352.767 122.363C346.367 113.03 349.967 97.6964 359.433 93.5631C368.233 89.6964 378.367 92.3631 383.033 99.8297C385.3 103.43 385.7 105.83 385.3 112.763C384.9 120.363 384.367 121.696 380.633 125.03C372.233 132.496 358.767 131.296 352.767 122.363Z" fill="currentColor"/>
<path d="M432.367 50.2297V146.23H413.7V50.2297H432.367Z" fill="currentColor"/>
<path fill-rule="evenodd" clip-rule="evenodd" d="M492.633 76.0964C500.233 78.8964 507.567 85.4297 511.433 93.163C514.9 100.096 515.033 100.896 515.033 123.296V146.23H505.7C498.5 146.23 496.367 145.83 496.367 144.363C496.367 140.896 494.367 140.896 487.7 144.23C479.033 148.63 468.767 148.63 459.7 144.363C446.633 138.23 440.1 127.03 440.1 110.896C440.1 93.0297 448.9 80.2297 464.367 75.4297C469.833 73.8297 487.3 74.2297 492.633 76.0964ZM468.5 127.83C456.1 121.563 455.967 100.763 468.233 94.2297C474.767 90.763 481.7 90.8964 487.167 94.6297C496.1 100.63 498.9 112.63 493.3 121.03C487.7 129.563 477.3 132.363 468.5 127.83Z" fill="currentColor"/>
<path d="M575.167 75.6964C580.5 77.563 586.367 82.6297 589.433 88.2297C591.3 91.4297 591.7 97.2964 592.1 119.163L592.633 146.23H573.7V127.163C573.567 97.6964 571.3 92.2297 559.033 92.2297C553.967 92.2297 551.7 92.8963 549.433 95.2963C546.5 98.0964 546.367 99.563 545.7 121.963L545.033 145.563L525.7 146.363V75.4297L535.433 75.8297C544.367 76.2297 545.033 76.4963 545.433 79.2963L545.967 82.4964L549.033 79.563C554.367 74.4963 566.233 72.763 575.167 75.6964Z" fill="currentColor"/>
<path d="M647.967 75.8297C654.767 77.4297 667.833 88.6297 666.767 91.6964C666.5 92.6297 663.3 95.163 659.833 97.2963C653.567 101.163 653.433 101.163 651.7 98.6297C650.633 97.1631 647.7 94.8964 645.167 93.6964C632.367 87.6964 619.033 96.3631 619.033 110.896C619.033 122.63 625.833 129.43 637.3 129.43C643.033 129.43 645.033 128.763 649.433 125.296L654.633 121.163L660.767 125.163C664.233 127.43 667.033 129.696 667.033 130.363C667.033 133.296 657.567 141.696 649.967 145.43C641.967 149.296 641.167 150.096 638.5 156.896C635.833 163.83 635.433 164.23 630.5 164.63C627.567 164.896 623.967 164.763 622.233 164.363L619.3 163.563L621.833 156.763C624.9 148.763 624.367 145.696 619.033 143.563C613.7 141.296 605.833 133.163 602.9 126.896C599.833 120.23 599.433 102.896 602.367 96.0964C609.433 79.2964 628.367 70.7631 647.967 75.8297Z" fill="currentColor"/>
<path fill-rule="evenodd" clip-rule="evenodd" d="M722.5 76.2297C726.9 77.563 730.767 79.9631 734.633 83.8297C744.5 94.0964 745.033 95.963 745.433 122.496L745.967 146.23H736.367C727.833 146.23 726.767 145.963 726.1 143.563C725.7 141.963 725.033 141.03 724.5 141.296C714.633 146.763 710.1 147.83 701.433 147.296C687.567 146.23 677.3 138.496 672.367 125.163C665.167 105.963 674.367 82.7631 691.7 76.3631C698.633 73.8297 714.233 73.6964 722.5 76.2297ZM703.567 129.696C686.9 126.496 683.967 100.23 699.433 93.563C712.9 87.6963 726.233 96.363 726.233 111.03C726.233 123.563 716.1 131.963 703.567 129.696Z" fill="currentColor"/>
<path fill-rule="evenodd" clip-rule="evenodd" d="M805.833 78.3631C816.367 84.2297 823.7 97.2964 822.767 108.63L822.367 113.563L791.967 113.963L761.433 114.23L762.367 118.63C763.7 125.03 769.833 133.163 775.967 136.63C786.5 142.496 798.767 141.83 809.033 134.763C813.567 131.83 814.367 131.563 816.1 133.43C817.833 135.163 817.7 135.696 814.5 138.63C808.9 143.83 801.7 146.763 793.033 147.296C782.767 147.963 775.3 145.963 768.1 140.496C751.567 127.83 749.7 100.096 764.233 84.4964C771.033 77.0297 779.167 74.0964 791.167 74.763C797.433 75.0297 801.7 76.0964 805.833 78.3631ZM768.767 90.6297C771.033 87.963 775.433 84.763 778.367 83.4297C793.833 76.363 812.1 86.0964 815.7 103.163L816.633 107.563H790.767C776.633 107.563 764.233 107.03 763.433 106.496C760.9 104.896 763.7 96.363 768.767 90.6297Z" fill="currentColor"/>
<path d="M836.367 96.4964C836.5 108.096 837.033 120.096 837.567 123.296C839.967 135.296 852.9 143.03 865.033 139.563C878.9 135.696 881.7 128.496 881.7 96.2297V75.563H888.367V101.563C888.367 129.83 887.567 133.563 880.1 140.496C869.567 150.363 846.367 149.83 836.767 139.43C830.767 132.763 829.833 128.096 829.7 102.096C829.7 88.6297 829.567 77.163 829.7 76.4964C829.7 75.963 831.167 75.563 833.033 75.563H836.367V96.4964Z" fill="currentColor"/>

</svg>
